<svg data-v-423bf9ae="" xmlns="http://www.w3.org/2000/svg" viewBox="0 0 426 90" class="iconLeftSlogan"><!----><!----><!----><g data-v-423bf9ae="" id="c2652795-36b0-4e68-a093-5ab8d2c154a7" fill="#ffffff" transform="matrix(4.830917473776838,0,0,4.830917473776838,171.87901782546868,-18.26086719740705)"><path d="M1.79 7.85L1.79 7.85L1.79 7.85Q2.39 7.85 2.69 8.11L2.69 8.11L2.69 8.11Q3.00 8.36 3.00 9.14L3.00 9.14L3.00 9.14Q3.00 9.56 2.74 10.86L2.74 10.86L2.74 10.86Q2.49 12.15 2.49 12.43L2.49 12.43L2.49 12.43Q2.49 12.99 2.72 12.99L2.72 12.99L2.72 12.99Q3.25 12.99 3.89 12.20L3.89 12.20L3.89 12.20Q4.52 11.41 4.55 10.88L4.55 10.88L3.60 9.81L3.60 9.81Q3.65 9.21 3.89 8.72L3.89 8.72L3.89 8.72Q4.13 8.23 4.34 8.04L4.34 8.04L4.54 7.85L4.54 7.85Q5.14 7.85 5.45 8.18L5.45 8.18L5.45 8.18Q5.75 8.50 5.75 8.93L5.75 8.93L5.75 8.93Q5.75 10.04 5.21 11.27L5.21 11.27L5.21 11.27Q4.66 12.50 3.75 13.36L3.75 13.36L3.75 13.36Q2.84 14.22 1.90 14.22L1.90 14.22L1.90 14.22Q1.32 14.22 1.00 13.86L1.00 13.86L1.00 13.86Q0.69 13.50 0.69 12.90L0.69 12.90L0.69 12.90Q0.69 12.31 0.78 11.30L0.78 11.30L0.78 11.30Q0.87 10.29 0.87 9.30L0.87 9.30L0.87 9.30Q0.87 9.07 0.71 8.76L0.71 8.76L0.71 8.76Q0.55 8.46 0.38 8.27L0.38 8.27L0.42 8.11L0.42 8.11Q1.18 7.85 1.79 7.85ZM8.83 8.72L8.83 8.72L8.83 8.72Q8.83 9.31 8.46 10.75L8.46 10.75L8.46 10.75Q8.08 12.18 8.08 12.62L8.08 12.62L8.08 12.62Q8.08 13.06 8.20 13.06L8.20 13.06L8.20 13.06Q8.29 13.06 8.85 12.80L8.85 12.80L9.02 12.71L9.25 13.20L9.25 13.20Q9.13 13.31 8.92 13.48L8.92 13.48L8.92 13.48Q8.71 13.65 8.13 13.94L8.13 13.94L8.13 13.94Q7.56 14.22 7.07 14.22L7.07 14.22L7.07 14.22Q6.58 14.22 6.30 13.92L6.30 13.92L6.30 13.92Q6.02 13.62 6.02 13.11L6.02 13.11L6.02 13.11Q6.02 12.60 6.37 11.29L6.37 11.29L6.37 11.29Q6.72 9.98 6.72 9.59L6.72 9.59L6.72 9.59Q6.72 9.00 6.36 8.48L6.36 8.48L6.23 8.32L6.24 8.13L6.24 8.13Q6.99 7.92 8.65 7.92L8.65 7.92L8.65 7.92Q8.83 8.13 8.83 8.72ZM7.24 6.39L7.24 6.39L7.24 6.39Q6.96 6.12 6.96 5.66L6.96 5.66L6.96 5.66Q6.96 5.19 7.34 4.84L7.34 4.84L7.34 4.84Q7.73 4.49 8.23 4.49L8.23 4.49L8.23 4.49Q8.74 4.49 9.02 4.77L9.02 4.77L9.02 4.77Q9.30 5.05 9.30 5.51L9.30 5.51L9.30 5.51Q9.30 5.96 8.90 6.31L8.90 6.31L8.90 6.31Q8.50 6.66 8.01 6.66L8.01 6.66L8.01 6.66Q7.52 6.66 7.24 6.39ZM12.77 8.02L14.13 8.02L14.13 8.02Q14.10 8.37 13.89 8.83L13.89 8.83L13.89 8.83Q13.36 8.78 12.88 8.78L12.88 8.78L12.63 8.78L12.63 8.78Q11.98 11.90 11.98 12.67L11.98 12.67L11.98 12.67Q11.98 13.08 12.16 13.08L12.16 13.08L12.16 13.08Q12.33 13.08 13.09 12.73L13.09 12.73L13.34 13.19L13.34 13.19Q12.10 14.22 11.03 14.22L11.03 14.22L11.03 14.22Q10.54 14.22 10.23 13.92L10.23 13.92L10.23 13.92Q9.91 13.61 9.91 13.10L9.91 13.10L9.91 13.10Q9.91 12.59 10.03 11.94L10.03 11.94L10.03 11.94Q10.15 11.30 10.36 10.37L10.36 10.37L10.36 10.37Q10.57 9.44 10.67 8.86L10.67 8.86L10.67 8.86Q10.15 8.90 9.90 8.95L9.90 8.95L9.90 8.95Q9.87 8.78 9.87 8.49L9.87 8.49L9.87 8.49Q9.87 8.20 9.91 8.02L9.91 8.02L10.79 8.02L10.79 8.02Q10.91 7.27 10.91 6.59L10.91 6.59L10.89 6.16L10.89 6.12L10.89 6.12Q11.98 5.74 12.95 5.74L12.95 5.74L12.95 5.74Q13.01 6.02 13.01 6.44L13.01 6.44L13.01 6.44Q13.01 6.86 12.77 8.02L12.77 8.02ZM18.05 8.26L18.05 8.26L18.05 8.26Q18.07 8.23 18.20 7.90L18.20 7.90L18.20 7.90Q18.86 7.90 19.96 8.29L19.96 8.29L19.96 8.29Q19.61 9.45 19.40 10.72L19.40 10.72L19.40 10.72Q19.19 11.98 19.19 12.52L19.19 12.52L19.19 12.52Q19.19 13.06 19.31 13.06L19.31 13.06L19.31 13.06Q19.39 13.06 19.92 12.80L19.92 12.80L20.09 12.71L20.34 13.20L20.34 13.20Q20.22 13.31 20.01 13.48L20.01 13.48L20.01 13.48Q19.81 13.65 19.25 13.94L19.25 13.94L19.25 13.94Q18.69 14.22 18.24 14.22L18.24 14.22L18.24 14.22Q17.37 14.22 17.23 13.44L17.23 13.44L17.23 13.44Q16.34 14.22 15.62 14.22L15.62 14.22L15.62 14.22Q14.90 14.22 14.40 13.66L14.40 13.66L14.40 13.66Q13.90 13.10 13.90 11.90L13.90 11.90L13.90 11.90Q13.90 10.02 14.67 8.94L14.67 8.94L14.67 8.94Q15.44 7.85 16.53 7.85L16.53 7.85L16.53 7.85Q17.32 7.85 18.05 8.26ZM16.45 13.03L16.45 13.03L16.45 13.03Q16.79 13.03 17.21 12.77L17.21 12.77L17.21 12.77Q17.30 10.79 17.86 8.86L17.86 8.86L17.86 8.86Q17.44 8.68 17.15 8.68L17.15 8.68L17.15 8.68Q16.65 8.68 16.29 9.67L16.29 9.67L16.29 9.67Q15.93 10.65 15.93 11.84L15.93 11.84L15.93 11.84Q15.93 13.03 16.45 13.03ZM21.68 14.22L21.68 14.22L21.68 14.22Q21.20 14.22 20.88 13.90L20.88 13.90L20.88 13.90Q20.57 13.58 20.57 13.00L20.57 13.00L20.57 13.00Q20.57 12.42 21.26 9.29L21.26 9.29L21.26 9.29Q21.95 6.16 21.95 4.77L21.95 4.77L21.87 4.16L21.87 4.16Q22.96 3.78 23.91 3.78L23.91 3.78L23.91 3.78Q24.05 3.98 24.05 4.47L24.05 4.47L24.05 4.47Q24.05 5.59 23.34 8.80L23.34 8.80L23.34 8.80Q22.64 12.01 22.64 12.54L22.64 12.54L22.64 12.54Q22.64 13.06 22.76 13.06L22.76 13.06L23.74 12.71L24.00 13.20L24.00 13.20Q23.52 13.58 22.84 13.90L22.84 13.90L22.84 13.90Q22.16 14.22 21.68 14.22ZM29.90 8.02L31.21 8.02L31.21 8.02Q31.18 8.33 30.95 8.83L30.95 8.83L30.95 8.83Q30.42 8.78 29.90 8.78L29.90 8.78L29.85 8.78L29.85 8.78Q29.55 12.24 29.30 13.89L29.30 13.89L29.30 13.89Q29.05 15.54 28.64 16.20L28.64 16.20L28.64 16.20Q28.14 16.18 27.60 16.07L27.60 16.07L27.60 16.07Q27.06 15.95 26.87 15.82L26.87 15.82L26.87 15.82Q27.20 14.78 27.55 12.70L27.55 12.70L27.55 12.70Q27.89 10.61 27.99 8.85L27.99 8.85L27.99 8.85Q27.59 8.88 27.12 8.95L27.12 8.95L27.12 8.95Q27.08 8.76 27.08 8.58L27.08 8.58L27.08 8.58Q27.08 8.39 27.13 8.02L27.13 8.02L28.03 8.02L28.03 8.02Q28.06 6.80 28.15 6.17L28.15 6.17L28.15 6.17Q28.32 5.05 28.93 4.42L28.93 4.42L28.93 4.42Q29.54 3.78 30.51 3.78L30.51 3.78L30.51 3.78Q31.12 3.78 31.48 4.05L31.48 4.05L31.48 4.05Q31.84 4.33 31.84 4.91L31.84 4.91L31.84 4.91Q31.84 5.50 31.30 6.43L31.30 6.43L31.30 6.43Q30.77 7.36 29.90 8.02L29.90 8.02ZM29.93 7.14L29.93 7.14Q30.48 6.68 30.79 6.12L30.79 6.12L30.79 6.12Q31.09 5.56 31.09 5.10L31.09 5.10L31.09 5.10Q31.09 4.65 30.80 4.65L30.80 4.65L30.80 4.65Q30.18 4.65 30.02 6.06L30.02 6.06L30.02 6.06Q29.96 6.54 29.93 7.14L29.93 7.14ZM32.97 14.22L32.97 14.22L32.97 14.22Q32.00 14.22 31.46 13.55L31.46 13.55L31.46 13.55Q30.91 12.87 30.91 11.65L30.91 11.65L30.91 11.65Q30.91 10.09 31.75 8.97L31.75 8.97L31.75 8.97Q32.58 7.85 34.05 7.85L34.05 7.85L34.55 7.88L34.55 7.88Q34.79 7.76 35.08 7.76L35.08 7.76L35.08 7.76Q36.19 7.76 36.19 9.84L36.19 9.84L36.19 9.84Q36.76 9.81 37.35 9.69L37.35 9.69L37.58 9.63L37.66 10.18L37.66 10.18Q37.20 10.37 36.41 10.53L36.41 10.53L36.13 10.58L36.13 10.58Q35.87 12.05 35.06 13.14L35.06 13.14L35.06 13.14Q34.24 14.22 32.97 14.22ZM33.73 13.02L33.73 13.02L33.73 13.02Q34.31 13.02 34.78 12.26L34.78 12.26L34.78 12.26Q35.25 11.51 35.43 10.67L35.43 10.67L35.43 10.67Q33.94 10.67 33.94 9.55L33.94 9.55L33.94 9.55Q33.94 9.10 34.12 8.71L34.12 8.71L34.19 8.57L34.19 8.57Q34.13 8.54 34.05 8.54L34.05 8.54L34.05 8.54Q33.96 8.54 33.92 8.57L33.92 8.57L33.92 8.57Q33.57 8.79 33.26 9.62L33.26 9.62L33.26 9.62Q32.96 10.44 32.96 11.51L32.96 11.51L32.96 11.51Q32.96 13.02 33.73 13.02ZM36.82 14.10L36.82 14.10L36.72 14.10L36.72 14.10Q36.69 13.99 36.69 13.59L36.69 13.59L36.69 13.59Q36.69 13.19 37.07 11.44L37.07 11.44L37.07 11.44Q37.45 9.69 37.45 9.44L37.45 9.44L37.45 9.44Q37.45 9.00 37.06 8.48L37.06 8.48L36.93 8.32L36.95 8.13L36.95 8.13Q37.70 7.92 39.37 7.92L39.37 7.92L39.37 7.92Q39.54 8.29 39.54 8.95L39.54 8.95L39.54 8.95Q39.69 8.69 40.18 8.27L40.18 8.27L40.18 8.27Q40.67 7.85 41.19 7.85L41.19 7.85L41.19 7.85Q41.94 7.85 41.94 9.17L41.94 9.17L41.94 9.17Q41.87 9.25 41.76 9.39L41.76 9.39L41.76 9.39Q41.64 9.52 41.28 9.76L41.28 9.76L41.28 9.76Q40.92 10.00 40.59 10.05L40.59 10.05L40.59 10.05Q40.57 10.05 40.35 9.67L40.35 9.67L40.35 9.67Q40.12 9.30 40.01 9.30L40.01 9.30L40.01 9.30Q39.66 9.42 39.40 9.72L39.40 9.72L39.40 9.72Q38.75 12.61 38.75 13.47L38.75 13.47L38.75 13.47Q38.75 13.78 38.77 13.90L38.77 13.90L38.77 13.90Q38.28 14.10 36.82 14.10ZM44.86 8.55L44.86 8.55L44.86 8.55Q44.30 8.55 43.96 9.49L43.96 9.49L43.96 9.49Q43.62 10.42 43.62 11.48L43.62 11.48L43.62 11.48Q43.62 13.16 44.66 13.16L44.66 13.16L44.66 13.16Q45.00 13.16 45.37 13.00L45.37 13.00L45.37 13.00Q45.75 12.84 45.98 12.68L45.98 12.68L46.19 12.52L46.51 12.95L46.51 12.95Q46.40 13.10 46.06 13.36L46.06 13.36L46.06 13.36Q45.72 13.61 45.43 13.78L45.43 13.78L45.43 13.78Q45.14 13.94 44.67 14.08L44.67 14.08L44.67 14.08Q44.21 14.22 43.76 14.22L43.76 14.22L43.76 14.22Q42.67 14.22 42.13 13.51L42.13 13.51L42.13 13.51Q41.58 12.80 41.58 11.59L41.58 11.59L41.58 11.59Q41.58 9.93 42.50 8.89L42.50 8.89L42.50 8.89Q43.41 7.85 44.86 7.85L44.86 7.85L44.86 7.85Q45.79 7.85 46.35 8.28L46.35 8.28L46.35 8.28Q46.90 8.71 46.90 9.33L46.90 9.33L46.90 9.33Q46.90 9.95 46.51 10.40L46.51 10.40L46.51 10.40Q46.16 10.40 45.70 10.25L45.70 10.25L45.70 10.25Q45.23 10.09 45.00 9.87L45.00 9.87L45.21 8.64L45.21 8.64Q45.08 8.55 44.86 8.55ZM47.14 11.63L47.14 11.63L47.14 11.63Q47.14 9.88 48.20 8.87L48.20 8.87L48.20 8.87Q49.25 7.85 50.60 7.85L50.60 7.85L50.60 7.85Q51.42 7.85 51.95 8.26L51.95 8.26L51.95 8.26Q52.49 8.67 52.49 9.35L52.49 9.35L52.49 9.35Q52.49 10.02 52.14 10.49L52.14 10.49L52.14 10.49Q51.80 10.95 51.31 11.20L51.31 11.20L51.31 11.20Q50.32 11.69 49.49 11.82L49.49 11.82L49.15 11.86L49.15 11.86Q49.25 13.17 50.23 13.17L50.23 13.17L50.23 13.17Q50.57 13.17 50.95 13.01L50.95 13.01L50.95 13.01Q51.32 12.84 51.53 12.67L51.53 12.67L51.74 12.50L52.08 12.95L52.08 12.95Q51.97 13.10 51.63 13.36L51.63 13.36L51.63 13.36Q51.30 13.61 51.00 13.78L51.00 13.78L51.00 13.78Q50.19 14.22 49.22 14.22L49.22 14.22L49.22 14.22Q48.26 14.22 47.70 13.54L47.70 13.54L47.70 13.54Q47.14 12.85 47.14 11.63ZM49.14 11.17L49.14 11.17Q49.85 11.05 50.27 10.57L50.27 10.57L50.27 10.57Q50.69 10.09 50.69 9.34L50.69 9.34L50.69 9.34Q50.69 8.58 50.25 8.58L50.25 8.58L50.25 8.58Q49.71 8.58 49.43 9.49L49.43 9.49L49.43 9.49Q49.14 10.39 49.14 11.17L49.14 11.17Z"></path></g><!----><g data-v-423bf9ae="" id="0dacda72-666f-4912-92a3-c8791263ee3f" transform="matrix(4.803586662404586,0,0,4.803586662404586,0.14261340152661717,-31.22538662899096)" stroke="none" fill="#fff"><path d="M16 19.586l7.496-12.954H8.504zM7.496 12.414L0 25.368h14.992zM24.504 12.414l-7.496 12.954H32z"></path></g><!----><g data-v-423bf9ae="" id="0ca34515-fb77-448f-af4f-de03584a13f0" fill="#FFFFFF" transform="matrix(0.5590475194435025,0,0,0.5590475194435025,172.58549800583364,57.55696247144384)"><path d="M2.02 13.78L7.56 13.78L7.56 13.06L2.83 13.06L2.83 4.54L2.02 4.54ZM17.12 13.78L22.81 13.78L22.81 13.06L17.96 13.06L17.96 9.25L21.92 9.25L21.92 8.53L17.96 8.53L17.96 5.24L22.67 5.24L22.67 4.54L17.12 4.54ZM31.37 13.78L32.21 13.78L33.22 10.71L36.76 10.71L37.76 13.78L38.63 13.78L35.45 4.54L34.55 4.54ZM33.47 10.02L33.99 8.41C34.34 7.34 34.65 6.37 34.97 5.25L35.03 5.25C35.34 6.37 35.64 7.34 36.01 8.41L36.53 10.02ZM47.50 13.78L49.69 13.78C52.47 13.78 53.84 11.97 53.84 9.11C53.84 6.27 52.47 4.54 49.64 4.54L47.50 4.54ZM48.31 13.09L48.31 5.22L49.59 5.22C51.93 5.22 52.99 6.75 52.99 9.11C52.99 11.49 51.93 13.09 49.59 13.09ZM65.91 13.94C67.83 13.94 69.05 12.84 69.05 11.40C69.05 10.00 68.08 9.45 66.99 8.95L65.63 8.36C64.89 8.02 63.94 7.64 63.94 6.65C63.94 5.70 64.75 5.11 65.97 5.11C66.93 5.11 67.68 5.47 68.26 6.02L68.73 5.47C68.11 4.84 67.13 4.37 65.97 4.37C64.30 4.37 63.08 5.33 63.08 6.71C63.08 8.05 64.20 8.68 65.09 9.04L66.46 9.63C67.42 10.07 68.21 10.37 68.21 11.47C68.21 12.50 67.34 13.20 65.91 13.20C64.82 13.20 63.83 12.71 63.14 11.97L62.62 12.56C63.39 13.38 64.53 13.94 65.91 13.94ZM96.18 13.78L97.02 13.78L97.02 10.40L100.16 4.54L99.30 4.54L97.82 7.45C97.45 8.16 97.05 8.90 96.66 9.65L96.60 9.65C96.19 8.90 95.84 8.19 95.47 7.49L93.91 4.54L93.04 4.54L96.18 10.40ZM112.00 13.94C114.03 13.94 115.47 12.07 115.47 9.11C115.47 6.20 114.03 4.37 112.00 4.37C109.97 4.37 108.53 6.19 108.53 9.11C108.53 12.07 109.97 13.94 112.00 13.94ZM112.00 13.20C110.43 13.20 109.38 11.59 109.38 9.11C109.38 6.65 110.43 5.11 112.00 5.11C113.57 5.11 114.62 6.65 114.62 9.11C114.62 11.59 113.57 13.20 112.00 13.20ZM127.41 13.94C129.04 13.94 130.41 13.05 130.41 10.32L130.41 4.54L129.60 4.54L129.60 10.26C129.60 12.49 128.60 13.20 127.41 13.20C126.21 13.20 125.23 12.49 125.23 10.26L125.23 4.54L124.39 4.54L124.39 10.32C124.39 13.05 125.76 13.94 127.41 13.94ZM157.78 13.78L158.62 13.78L158.62 5.24L161.76 5.24L161.76 4.54L154.64 4.54L154.64 5.24L157.78 5.24ZM173.60 13.94C175.63 13.94 177.07 12.07 177.07 9.11C177.07 6.20 175.63 4.37 173.60 4.37C171.57 4.37 170.13 6.19 170.13 9.11C170.13 12.07 171.57 13.94 173.60 13.94ZM173.60 13.20C172.03 13.20 170.98 11.59 170.98 9.11C170.98 6.65 172.03 5.11 173.60 5.11C175.17 5.11 176.22 6.65 176.22 9.11C176.22 11.59 175.17 13.20 173.60 13.20ZM203.98 13.78L204.82 13.78L204.82 10.40L207.96 4.54L207.10 4.54L205.62 7.45C205.25 8.16 204.85 8.90 204.46 9.65L204.40 9.65C203.99 8.90 203.64 8.19 203.27 7.49L201.71 4.54L200.84 4.54L203.98 10.40ZM219.80 13.94C221.83 13.94 223.27 12.07 223.27 9.11C223.27 6.20 221.83 4.37 219.80 4.37C217.77 4.37 216.33 6.19 216.33 9.11C216.33 12.07 217.77 13.94 219.80 13.94ZM219.80 13.20C218.23 13.20 217.18 11.59 217.18 9.11C217.18 6.65 218.23 5.11 219.80 5.11C221.37 5.11 222.42 6.65 222.42 9.11C222.42 11.59 221.37 13.20 219.80 13.20ZM235.21 13.94C236.84 13.94 238.21 13.05 238.21 10.32L238.21 4.54L237.40 4.54L237.40 10.26C237.40 12.49 236.40 13.20 235.21 13.20C234.01 13.20 233.03 12.49 233.03 10.26L233.03 4.54L232.19 4.54L232.19 10.32C232.19 13.05 233.56 13.94 235.21 13.94ZM247.95 13.78L248.78 13.78L248.78 9.66L250.63 9.66L253.02 13.78L253.97 13.78L251.54 9.62C252.88 9.34 253.76 8.50 253.76 7.01C253.76 5.21 252.50 4.54 250.67 4.54L247.95 4.54ZM248.78 8.96L248.78 5.21L250.50 5.21C252.06 5.21 252.92 5.70 252.92 7.01C252.92 8.33 252.06 8.96 250.50 8.96ZM278.50 13.78L280.69 13.78C283.47 13.78 284.84 11.97 284.84 9.11C284.84 6.27 283.47 4.54 280.64 4.54L278.50 4.54ZM279.31 13.09L279.31 5.22L280.59 5.22C282.93 5.22 283.99 6.75 283.99 9.11C283.99 11.49 282.93 13.09 280.59 13.09ZM294.15 13.78L294.98 13.78L294.98 9.66L296.83 9.66L299.22 13.78L300.17 13.78L297.74 9.62C299.08 9.34 299.96 8.50 299.96 7.01C299.96 5.21 298.70 4.54 296.87 4.54L294.15 4.54ZM294.98 8.96L294.98 5.21L296.70 5.21C298.26 5.21 299.12 5.70 299.12 7.01C299.12 8.33 298.26 8.96 296.70 8.96ZM309.72 13.78L315.41 13.78L315.41 13.06L310.56 13.06L310.56 9.25L314.52 9.25L314.52 8.53L310.56 8.53L310.56 5.24L315.27 5.24L315.27 4.54L309.72 4.54ZM323.97 13.78L324.81 13.78L325.82 10.71L329.36 10.71L330.36 13.78L331.23 13.78L328.05 4.54L327.15 4.54ZM326.07 10.02L326.59 8.41C326.94 7.34 327.25 6.37 327.57 5.25L327.63 5.25C327.94 6.37 328.24 7.34 328.61 8.41L329.13 10.02ZM339.92 13.78L340.75 13.78L340.75 7.76C340.75 7.08 340.68 6.06 340.63 5.42L340.68 5.42L341.33 7.18L343.04 11.26L343.59 11.26L345.28 7.18L345.88 5.42L345.94 5.42C345.91 6.06 345.86 7.08 345.86 7.76L345.86 13.78L346.70 13.78L346.70 4.54L345.58 4.54L343.91 8.71L343.35 10.29L343.29 10.29L342.69 8.71L341.03 4.54L339.92 4.54ZM359.13 13.94C361.05 13.94 362.26 12.84 362.26 11.40C362.26 10.00 361.30 9.45 360.21 8.95L358.85 8.36C358.11 8.02 357.15 7.64 357.15 6.65C357.15 5.70 357.97 5.11 359.18 5.11C360.15 5.11 360.89 5.47 361.48 6.02L361.94 5.47C361.33 4.84 360.35 4.37 359.18 4.37C357.52 4.37 356.30 5.33 356.30 6.71C356.30 8.05 357.42 8.68 358.30 9.04L359.67 9.63C360.64 10.07 361.42 10.37 361.42 11.47C361.42 12.50 360.56 13.20 359.13 13.20C358.04 13.20 357.04 12.71 356.36 11.97L355.84 12.56C356.61 13.38 357.74 13.94 359.13 13.94Z"></path></g></svg>